<?xml version="1.0" standalone="no"?>
<!DOCTYPE svg PUBLIC "-//W3C//DTD SVG 20010904//EN"
 "http://www.w3.org/TR/2001/REC-SVG-20010904/DTD/svg10.dtd">
<svg version="1.0" xmlns="http://www.w3.org/2000/svg"
 width="1424.000000pt" height="1424.000000pt" viewBox="0 0 1424.000000 1424.000000"
 preserveAspectRatio="xMidYMid meet">
<metadata>
Created by potrace 1.14, written by Peter Selinger 2001-2017
</metadata>
<g transform="translate(0.000000,1424.000000) scale(0.100000,-0.100000)"
fill="#000000" stroke="none">
<path d="M0 10461 l0 -660 101 -3 c55 -2 106 -1 114 2 8 3 62 3 120 0 58 -3
112 -3 120 0 8 3 62 3 120 0 58 -3 112 -3 120 0 8 3 62 3 120 0 58 -3 112 -3
120 0 8 3 62 3 120 0 58 -3 112 -3 120 0 8 3 72 3 143 0 71 -3 147 -3 168 0
21 3 55 3 74 0 19 -3 49 -3 65 0 17 3 50 3 75 0 36 -4 45 -9 47 -25 1 -11 5
-49 8 -85 3 -36 7 -83 10 -105 2 -22 6 -69 10 -105 3 -36 8 -81 11 -100 2 -19
6 -57 9 -85 8 -95 15 -170 20 -210 6 -49 17 -158 29 -297 7 -74 15 -143 21
-191 3 -21 8 -65 10 -98 10 -124 15 -175 20 -209 2 -19 7 -62 10 -95 3 -33 8
-78 10 -100 3 -22 7 -74 10 -115 4 -41 8 -86 11 -100 2 -14 7 -59 9 -100 3
-41 8 -88 11 -105 3 -16 8 -55 10 -85 8 -99 13 -154 19 -198 3 -24 7 -67 10
-95 2 -29 7 -74 10 -102 3 -27 7 -70 10 -95 9 -89 17 -176 20 -205 3 -31 14
-145 21 -205 7 -75 16 -157 20 -200 2 -25 6 -67 9 -95 3 -27 7 -72 10 -100 2
-27 6 -70 9 -95 6 -43 12 -107 21 -215 3 -27 7 -68 10 -90 2 -22 7 -65 10 -95
3 -30 8 -77 10 -105 3 -27 8 -75 10 -105 8 -80 18 -141 30 -180 3 -10 8 -28
10 -39 3 -12 7 -31 11 -43 3 -13 7 -34 10 -47 3 -13 9 -32 15 -43 5 -10 7 -18
5 -18 -3 0 -1 -12 5 -27 6 -16 12 -39 14 -53 3 -14 18 -74 35 -135 17 -60 32
-120 35 -133 2 -13 11 -49 21 -80 9 -31 18 -66 20 -77 2 -11 17 -69 33 -130
16 -60 32 -121 35 -135 3 -14 19 -74 35 -135 64 -237 112 -421 117 -445 3 -14
10 -43 17 -65 6 -22 12 -44 13 -50 1 -5 3 -12 4 -15 1 -3 3 -12 5 -20 2 -8 11
-42 20 -74 8 -33 17 -69 20 -80 2 -12 4 -21 5 -21 0 0 23 -85 51 -190 27 -104
51 -197 53 -205 3 -8 5 -18 5 -22 1 -5 423 -8 939 -8 l939 0 22 77 c12 43 24
85 26 93 19 73 47 168 52 180 3 8 7 20 8 25 2 6 8 28 14 50 6 22 11 43 11 47
0 4 7 26 15 49 9 23 18 54 21 68 8 40 25 99 41 141 3 8 7 22 8 30 1 8 10 42
19 75 10 33 19 65 21 70 1 6 4 17 8 25 5 14 30 105 33 123 1 4 2 8 4 10 1 1 3
9 5 17 8 31 45 158 65 225 20 68 24 79 36 127 8 35 9 39 28 98 10 30 19 66 22
80 3 14 11 41 19 61 8 20 11 39 8 43 -4 3 -1 6 6 6 7 0 10 4 7 8 -2 4 13 65
33 135 21 70 39 130 40 132 0 3 1 6 2 8 0 1 2 9 4 17 5 24 56 203 62 220 8 19
11 29 17 58 3 12 7 26 10 30 3 5 8 38 11 74 10 97 14 148 20 203 3 28 7 70 9
95 3 25 7 68 10 95 3 28 8 79 11 115 3 36 8 81 10 100 5 47 17 167 20 205 2
28 14 140 20 195 1 14 5 59 9 100 4 41 9 93 11 115 3 22 7 69 10 105 3 36 8
84 10 108 12 103 15 131 21 197 3 39 8 86 10 105 2 19 6 64 9 100 3 36 7 81
10 100 2 19 7 62 10 95 5 59 13 140 19 200 2 17 7 64 10 105 4 41 9 91 11 110
2 19 6 62 9 95 3 33 8 85 12 115 5 52 7 77 18 191 3 26 7 73 11 105 4 33 9 82
11 109 5 63 13 140 18 185 3 19 7 69 11 110 3 41 8 91 10 110 3 19 7 64 10
100 5 67 13 138 20 200 3 19 7 69 11 110 3 41 7 93 10 115 9 81 15 141 18 193
2 29 6 55 9 58 3 3 3 12 0 20 -5 12 13 15 103 15 60 0 116 0 124 0 8 1 62 1
120 0 58 0 112 0 120 0 8 1 62 1 120 0 58 0 112 0 120 0 14 1 117 0 335 -2 55
-1 107 -1 115 -1 8 1 144 1 301 1 l287 1 0 660 0 660 -1361 -2 -1361 -3 -8
-30 c-4 -16 -9 -41 -12 -55 -2 -14 -9 -47 -16 -75 -6 -27 -14 -59 -16 -70 -7
-38 -12 -60 -24 -110 -6 -27 -14 -61 -16 -75 -3 -14 -9 -41 -14 -60 -5 -19
-12 -47 -15 -62 -12 -61 -17 -85 -26 -128 -6 -25 -12 -52 -14 -60 -2 -8 -9
-37 -15 -65 -7 -27 -14 -59 -16 -70 -2 -11 -8 -39 -14 -63 -5 -23 -13 -59 -16
-80 -3 -20 -10 -45 -15 -54 -5 -10 -8 -18 -5 -18 2 0 -2 -24 -10 -52 -7 -29
-16 -70 -19 -92 -4 -21 -10 -49 -15 -62 -5 -13 -7 -24 -5 -24 2 0 0 -12 -6
-27 -6 -16 -12 -39 -14 -53 -6 -44 -14 -84 -24 -119 -6 -18 -10 -36 -9 -40 1
-3 -1 -13 -5 -21 -5 -14 -11 -39 -21 -95 -2 -11 -9 -42 -16 -70 -6 -27 -14
-61 -16 -75 -3 -14 -11 -50 -19 -80 -7 -30 -16 -68 -19 -85 -3 -16 -7 -39 -10
-50 -22 -93 -108 -475 -111 -495 -2 -14 -13 -65 -25 -115 -36 -157 -37 -161
-55 -245 -3 -14 -7 -34 -9 -45 -2 -11 -9 -38 -14 -60 -6 -22 -13 -123 -17
-225 -3 -102 -8 -255 -11 -340 -3 -85 -7 -216 -9 -290 -2 -74 -4 -135 -5 -135
0 0 -3 -65 -5 -145 -3 -80 -7 -215 -10 -300 -2 -85 -7 -227 -10 -315 -8 -274
-14 -444 -20 -600 -6 -156 -12 -346 -20 -620 -3 -88 -7 -221 -10 -295 -2 -74
-7 -200 -10 -279 -2 -79 -6 -146 -9 -148 -2 -3 -78 -4 -168 -3 -89 1 -170 2
-178 1 -52 -4 -102 -2 -107 3 -3 3 -7 54 -9 113 -2 60 -4 108 -4 108 -1 0 -3
45 -5 100 -5 195 -16 482 -21 605 -3 69 -7 170 -8 225 -1 56 -5 106 -9 112 -4
7 -3 14 1 17 7 4 9 51 2 51 -1 0 -3 52 -5 115 -4 117 -10 304 -21 575 -3 83
-7 204 -9 270 -2 66 -4 120 -5 120 -1 0 -3 63 -5 140 -2 77 -6 203 -9 280 -3
77 -8 221 -12 320 -8 242 -11 299 -14 305 -1 3 -1 10 0 15 1 6 1 33 0 60 -1
28 -2 61 -2 75 0 22 -21 128 -49 255 -5 22 -11 51 -13 65 -2 14 -9 45 -16 69
-6 25 -13 54 -15 65 -1 12 -5 28 -8 36 -3 8 -8 31 -12 50 -3 19 -8 46 -10 60
-3 14 -12 52 -20 85 -9 33 -18 75 -21 94 -2 19 -7 37 -9 41 -3 4 -7 25 -10 46
-4 22 -10 53 -15 69 -5 17 -12 44 -15 60 -7 41 -11 59 -29 136 -8 37 -18 80
-21 95 -3 16 -8 38 -10 49 -3 11 -7 31 -9 45 -13 63 -28 126 -33 140 -3 8 -7
29 -8 47 -2 17 -6 37 -10 43 -4 7 -9 26 -10 42 -2 16 -7 48 -13 71 -13 51 -24
97 -28 116 -1 7 -7 34 -13 60 -6 25 -13 57 -15 71 -3 14 -5 25 -6 25 -1 0 -3
9 -5 20 -6 27 -52 243 -72 330 -8 39 -17 77 -18 85 -2 8 -4 15 -5 15 -1 0 -3
12 -5 26 -2 14 -8 43 -14 65 -5 21 -13 55 -16 74 -5 31 -13 66 -46 205 -5 22
-11 52 -13 67 -3 15 -7 31 -9 36 -3 4 -8 26 -11 48 -7 41 -9 53 -25 116 -5 20
-6 39 -3 42 3 4 -612 6 -1366 6 l-1372 0 0 -659z"/>
<path d="M7900 11108 c0 -14 1 -403 1 -428 0 -8 0 -116 0 -240 0 -124 0 -232
0 -240 0 -8 0 -100 -1 -204 -1 -103 1 -190 3 -192 3 -4 109 -5 302 -3 28 0
178 0 190 0 125 -2 1220 -3 1430 -1 88 1 167 1 175 1 8 0 116 0 240 0 124 0
230 0 235 0 180 -2 899 -3 1355 -1 113 1 212 1 220 1 8 0 51 0 95 0 44 0 85 0
90 0 125 -2 1220 -3 1430 -1 88 1 165 1 170 1 57 -1 294 -2 343 -2 l62 1 0
660 0 660 -3170 0 c-2529 0 -3170 -3 -3170 -12z"/>
<path d="M12660 9362 c-23 -8 -29 -22 -20 -54 5 -15 9 -30 9 -33 0 -3 -4 -18
-9 -33 -4 -16 -4 -35 0 -42 5 -7 5 -23 0 -34 -4 -11 -4 -32 0 -46 4 -14 4 -34
0 -45 -4 -11 -4 -32 1 -47 4 -15 4 -30 0 -32 -7 -5 -5 -92 4 -113 2 -7 1 -13
-3 -13 -4 0 -6 -24 -5 -52 3 -55 3 -71 4 -128 0 -19 1 -44 1 -55 0 -11 0 -31
-1 -45 -1 -14 -1 -34 -1 -45 0 -11 0 -44 -1 -72 -1 -60 6 -75 29 -71 10 1 22
-1 29 -5 6 -4 14 -3 17 2 3 5 20 6 38 2 18 -4 54 -4 81 -1 26 4 50 4 52 1 2
-3 37 -4 77 -1 41 3 88 3 104 0 16 -3 54 -3 85 0 31 3 70 3 88 -1 17 -4 34 -3
36 1 3 5 18 5 34 0 15 -4 34 -4 41 0 6 4 26 4 44 1 17 -4 42 -5 56 -4 14 2 46
3 73 3 26 0 54 0 62 0 8 0 22 0 30 0 8 0 38 0 65 0 28 0 62 1 78 1 15 1 43 1
62 0 19 -1 46 -2 60 -2 14 -1 35 -1 48 0 12 0 45 0 72 1 28 0 58 0 68 0 9 0
28 0 42 -1 42 -2 74 -1 103 2 l27 3 0 478 c0 487 0 486 -35 478 -22 -5 -93 -2
-103 4 -6 3 -13 2 -17 -4 -4 -6 -11 -7 -17 -4 -6 4 -33 6 -62 5 -117 -3 -137
-3 -143 3 -3 3 -13 1 -22 -4 -10 -5 -23 -5 -30 -1 -7 5 -27 5 -45 1 -18 -4
-42 -3 -54 1 -12 5 -24 4 -27 -1 -3 -5 -16 -6 -28 -1 -12 4 -35 4 -52 1 -16
-3 -40 -3 -52 1 -12 5 -25 4 -28 -1 -3 -5 -16 -6 -28 -1 -12 4 -33 5 -47 1
-14 -4 -34 -3 -46 1 -11 4 -27 3 -34 -1 -8 -5 -18 -6 -23 -3 -9 5 -28 5 -151
2 -24 -1 -48 1 -54 5 -6 3 -13 2 -17 -4 -4 -6 -11 -7 -17 -4 -6 4 -33 6 -62 5
-117 -3 -137 -3 -143 3 -3 3 -13 1 -22 -4 -10 -5 -23 -5 -30 -1 -7 5 -27 5
-45 1 -17 -4 -40 -4 -51 0 -11 4 -32 4 -47 -1 -15 -4 -28 -4 -30 0 -2 5 -10 6
-18 3z"/>
<path d="M1278 9321 c-10 -3 -301 -6 -648 -5 l-630 0 0 -3098 0 -3098 780 0
c736 0 780 1 781 18 0 9 1 562 0 1227 0 1115 -2 1278 -16 1480 -2 39 -7 105
-10 148 -3 44 -7 116 -10 160 -3 45 -7 114 -10 152 -3 39 -7 108 -10 155 -3
47 -7 119 -11 160 -3 41 -7 109 -9 150 -2 41 -6 107 -9 145 -3 39 -8 111 -11
160 -3 50 -8 124 -11 165 -3 41 -7 111 -10 155 -2 44 -6 107 -8 140 -2 33 -7
105 -10 160 -4 55 -9 132 -12 170 -3 39 -7 97 -9 130 -4 74 -15 239 -20 320
-3 33 -7 105 -10 160 -4 55 -8 125 -10 155 -12 172 -18 265 -31 480 -4 58 -8
114 -9 125 -1 11 -3 34 -4 51 -1 34 -15 45 -43 35z"/>
<path d="M6760 9325 c0 -6 -101 -10 -285 -9 -199 1 -285 -2 -286 -10 -1 -6 -2
-22 -4 -36 -2 -23 -14 -196 -21 -315 -1 -27 -5 -86 -8 -130 -3 -44 -8 -114
-10 -155 -3 -41 -8 -122 -12 -180 -10 -158 -11 -176 -18 -295 -4 -60 -9 -130
-11 -155 -4 -44 -14 -200 -20 -310 -11 -181 -15 -253 -20 -315 -10 -138 -17
-241 -20 -310 -2 -38 -4 -70 -5 -70 -1 0 -3 -31 -5 -70 -1 -38 -6 -105 -9
-149 -4 -43 -9 -117 -11 -165 -6 -107 -12 -215 -19 -306 -5 -67 -9 -126 -21
-330 -8 -120 -13 -197 -21 -275 -3 -36 -7 -640 -8 -1343 l-1 -1277 782 0 781
0 -1 3098 -2 3097 -288 0 c-184 0 -287 4 -287 10 0 7 -3 7 -8 0 -9 -13 -145
-13 -154 0 -5 7 -8 7 -8 0z"/>
<path d="M9300 9011 c0 -168 0 -310 -1 -316 -1 -5 -1 -14 0 -18 2 -12 3 -211
0 -222 -1 -5 -1 -14 0 -18 3 -20 3 -218 0 -222 -2 -2 -2 -182 1 -400 3 -218 2
-399 -3 -402 -4 -2 -5 -8 -2 -13 5 -8 9 -202 4 -225 -1 -5 -1 -14 0 -18 3 -20
3 -218 0 -222 -2 -2 -2 -182 1 -400 3 -218 2 -399 -3 -402 -4 -2 -5 -8 -2 -13
5 -8 9 -202 4 -225 -1 -5 -1 -14 0 -18 3 -20 3 -218 0 -222 -2 -2 -2 -182 1
-400 3 -218 2 -399 -3 -402 -4 -2 -5 -8 -2 -13 5 -8 9 -202 4 -225 -1 -5 -1
-14 0 -18 3 -20 3 -218 0 -221 -2 -3 -2 -111 1 -241 3 -130 2 -239 -3 -242 -4
-2 -5 -8 -2 -13 5 -8 9 -202 4 -225 -1 -5 -1 -14 0 -18 3 -20 3 -218 0 -222
-2 -2 -2 -38 1 -80 3 -42 2 -79 -3 -82 -4 -2 -5 -8 -2 -13 3 -4 6 -33 6 -64
l2 -56 1109 0 c610 0 1107 3 1105 8 -3 4 -1 16 3 27 4 11 4 29 0 40 -4 11 -4
29 0 40 4 11 4 30 -1 42 -5 12 -4 25 0 28 5 3 6 20 2 38 -5 18 -5 41 -1 52 4
11 4 29 0 41 -5 11 -5 27 0 34 4 7 4 25 0 40 -4 15 -4 33 0 40 4 7 4 26 0 41
-5 16 -5 31 0 34 4 3 5 20 1 38 -5 18 -5 41 -1 52 4 11 4 29 0 41 -5 11 -5 27
0 34 4 7 4 25 0 40 -4 15 -4 33 0 40 4 7 4 25 0 41 -5 15 -6 30 -2 33 7 8 5
113 -3 126 -3 6 -3 10 2 10 4 0 8 16 8 35 0 19 -3 35 -7 35 -4 0 -3 14 2 30 5
17 5 30 0 30 -5 0 -5 13 0 30 5 17 5 30 0 30 -5 0 -5 13 0 30 5 17 5 30 0 30
-5 0 -5 13 0 30 5 17 5 30 0 30 -5 0 -5 13 0 30 5 17 5 30 0 30 -5 0 -5 13 0
30 5 17 5 30 0 30 -5 0 -5 13 0 30 5 17 5 30 0 30 -5 0 -5 13 0 30 5 17 5 30
0 30 -5 0 -5 13 0 30 5 17 5 30 0 30 -5 0 -5 13 0 30 5 17 5 30 0 30 -5 0 -5
13 0 30 5 17 5 30 0 30 -5 0 -5 13 0 30 5 17 5 30 0 30 -5 0 -5 13 0 30 5 17
5 30 0 30 -5 0 -5 13 0 30 5 17 5 30 0 30 -5 0 -5 13 0 30 5 17 5 30 0 30 -5
0 -5 13 0 30 5 17 5 30 0 30 -5 0 -5 13 0 30 5 17 5 30 0 30 -5 0 -5 13 0 30
5 17 5 30 0 30 -5 0 -5 13 0 30 5 17 5 32 0 35 -5 3 -6 15 0 29 4 12 4 29 0
36 -5 8 -5 21 0 30 5 9 5 22 0 30 -5 8 -5 21 0 30 5 9 5 22 0 30 -5 8 -5 21 0
30 5 9 5 22 0 30 -5 8 -5 21 0 30 5 9 5 22 0 30 -5 8 -5 21 0 30 5 9 5 22 0
30 -5 8 -5 21 0 30 5 9 5 22 0 30 -5 8 -5 21 0 30 5 9 5 22 0 30 -5 8 -5 21 0
30 5 9 5 22 0 30 -5 8 -5 21 0 30 5 9 5 22 0 30 -5 8 -5 21 0 30 5 9 5 22 0
30 -5 8 -5 21 0 30 5 9 5 22 0 30 -5 8 -5 21 0 30 5 9 5 22 0 30 -5 8 -5 21 0
30 5 9 5 22 0 30 -5 8 -5 21 0 30 5 9 5 22 0 30 -5 8 -5 21 0 30 5 9 5 22 0
30 -5 8 -5 21 0 30 5 9 5 22 0 30 -5 8 -5 21 0 30 5 9 5 22 0 30 -5 8 -5 21 0
30 5 9 5 22 0 30 -5 8 -5 21 0 30 5 9 5 22 1 29 -5 7 -5 29 -1 49 3 21 3 49
-1 65 -4 15 -4 27 -1 27 4 0 7 16 7 35 0 19 -3 35 -7 35 -4 0 -3 14 2 30 5 17
5 30 0 30 -5 0 -5 13 0 30 5 17 5 30 0 30 -5 0 -5 13 0 30 5 17 5 30 0 30 -5
0 -5 13 0 30 5 17 5 30 0 30 -5 0 -5 13 0 30 5 17 5 30 0 30 -5 0 -5 13 0 30
5 17 5 30 0 30 -5 0 -5 13 0 30 5 17 5 30 0 30 -5 0 -5 13 0 30 5 17 5 30 0
30 -5 0 -5 13 0 30 5 17 5 30 0 30 -5 0 -5 13 0 30 5 17 5 30 0 30 -5 0 -5 13
0 30 5 17 5 30 0 30 -5 0 -5 13 0 30 5 17 5 30 0 30 -5 0 -5 13 0 30 5 17 5
30 0 30 -5 0 -5 13 0 30 5 17 5 30 0 30 -5 0 -5 13 0 30 5 17 5 30 0 30 -5 0
-5 13 0 30 5 17 5 30 0 30 -5 0 -5 13 0 30 5 17 5 30 0 30 -5 0 -5 13 0 30 5
17 5 30 0 30 -5 0 -5 13 0 30 5 17 5 32 0 35 -5 3 -6 15 0 29 4 12 4 29 0 36
-5 8 -5 21 0 30 5 9 5 22 0 30 -5 8 -5 21 0 30 5 9 5 22 0 30 -5 8 -5 21 0 30
5 9 5 22 0 30 -5 8 -5 21 0 30 5 9 5 22 0 30 -5 8 -5 21 0 30 5 9 5 22 0 30
-5 8 -5 21 0 30 5 9 5 22 0 30 -5 8 -5 21 0 30 5 9 5 22 0 30 -5 8 -5 21 0 30
5 9 5 22 0 30 -5 8 -5 21 0 30 5 9 5 22 0 30 -5 8 -5 21 0 30 5 9 5 22 0 30
-5 8 -5 21 0 30 5 9 5 22 0 30 -5 8 -5 21 0 30 5 9 5 22 0 30 -5 8 -5 21 0 30
5 9 5 22 0 30 -5 8 -5 21 0 30 5 9 5 22 0 30 -5 8 -5 21 0 30 5 9 5 22 0 30
-5 8 -5 21 0 30 5 9 5 22 0 30 -5 8 -5 21 0 30 5 9 5 22 0 30 -5 8 -5 21 0 30
5 9 5 22 0 30 -5 8 -5 21 0 30 5 9 5 22 1 29 -5 7 -5 29 -1 49 3 21 3 49 -1
65 -4 15 -4 27 -1 27 4 0 7 16 7 35 0 19 -3 35 -7 35 -3 0 -4 9 -1 20 3 12 0
21 -8 22 -8 0 -508 2 -1112 3 l-1098 1 1 -305z"/>
<path d="M12652 7919 c-18 -7 -21 -13 -14 -25 5 -9 6 -31 2 -48 -4 -17 -4 -40
0 -51 4 -11 4 -30 -1 -41 -4 -12 -6 -24 -4 -26 8 -8 12 -74 5 -93 -4 -11 -4
-32 1 -47 4 -15 4 -30 0 -32 -4 -3 -6 -17 -5 -33 1 -15 3 -41 4 -58 1 -16 1
-34 0 -40 -1 -5 -1 -35 0 -65 0 -30 1 -62 1 -70 -1 -33 0 -66 2 -90 2 -14 0
-34 -4 -45 -3 -11 -3 -32 2 -47 4 -15 4 -30 0 -32 -7 -5 -5 -92 4 -113 2 -7 1
-13 -3 -13 -4 0 -6 -24 -5 -52 3 -65 3 -85 3 -123 0 -16 1 -39 3 -50 2 -11 1
-32 -3 -46 -4 -15 -4 -32 0 -39 5 -7 5 -23 0 -34 -4 -11 -4 -32 0 -46 4 -14 4
-34 0 -45 -4 -11 -4 -32 1 -47 4 -15 4 -30 0 -32 -7 -5 -5 -92 4 -113 2 -7 1
-13 -3 -13 -4 0 -6 -24 -5 -52 3 -60 3 -81 3 -123 0 -16 2 -41 3 -55 2 -14 0
-34 -4 -45 -3 -11 -3 -32 2 -47 4 -15 4 -30 0 -32 -4 -3 -6 -17 -5 -33 1 -15
3 -41 4 -58 1 -16 1 -34 0 -40 -1 -5 -1 -35 0 -65 0 -30 1 -62 1 -70 -1 -33 0
-66 2 -90 2 -14 0 -34 -4 -45 -3 -11 -3 -32 2 -47 4 -15 4 -30 0 -32 -7 -5 -5
-92 4 -113 2 -7 1 -13 -3 -13 -4 0 -6 -24 -5 -52 3 -60 3 -81 3 -123 0 -16 2
-41 3 -55 2 -14 0 -34 -4 -45 -3 -11 -3 -32 2 -47 4 -15 4 -30 0 -32 -4 -3 -6
-17 -5 -33 1 -15 3 -41 4 -58 1 -16 1 -34 0 -40 -1 -5 -1 -35 0 -65 0 -30 1
-62 1 -70 -1 -33 0 -66 2 -90 2 -14 0 -34 -4 -45 -3 -11 -3 -32 2 -47 4 -15 4
-30 0 -32 -7 -5 -5 -92 4 -113 2 -7 1 -13 -3 -13 -4 0 -6 -24 -5 -52 3 -55 3
-71 4 -128 0 -19 1 -44 1 -55 0 -11 0 -31 -1 -45 -1 -14 -1 -34 -1 -45 0 -11
0 -45 -1 -76 0 -31 1 -60 2 -65 1 -5 0 -13 -1 -19 -1 -5 -1 -35 0 -65 0 -30 1
-62 1 -70 -1 -33 0 -66 2 -90 2 -14 0 -34 -4 -45 -3 -11 -3 -32 2 -47 4 -15 4
-30 0 -32 -7 -5 -5 -92 4 -113 2 -7 1 -13 -3 -13 -4 0 -6 -24 -5 -52 3 -55 3
-71 4 -128 0 -19 1 -44 1 -55 1 -11 -1 -31 -3 -45 l-4 -25 803 -3 802 -2 0
2399 c0 1320 -4 2402 -8 2405 -4 2 -14 1 -22 -4 -9 -5 -19 -5 -26 1 -8 7 -14
6 -19 -1 -4 -7 -12 -7 -25 0 -11 6 -21 6 -25 1 -3 -6 -17 -6 -35 -1 -18 5 -32
5 -35 -1 -4 -5 -13 -5 -23 0 -11 6 -24 6 -35 0 -12 -7 -17 -6 -17 1 0 6 -4 8
-10 5 -15 -9 -81 -12 -86 -4 -3 5 -15 4 -28 -1 -13 -5 -27 -6 -30 -3 -8 8 -85
7 -93 -1 -3 -3 -12 -1 -19 5 -8 7 -14 7 -19 -1 -4 -7 -12 -7 -25 0 -11 6 -21
6 -25 1 -3 -6 -17 -6 -35 -1 -18 5 -32 5 -35 -1 -4 -5 -13 -5 -23 0 -11 6 -24
6 -35 0 -12 -7 -17 -6 -17 1 0 6 -4 8 -10 5 -15 -9 -81 -12 -86 -4 -3 5 -15 4
-28 -1 -13 -5 -27 -6 -30 -3 -8 8 -85 7 -93 -1 -3 -3 -12 -1 -19 5 -8 7 -14 7
-19 -1 -4 -7 -12 -7 -25 0 -11 6 -21 6 -25 1 -3 -6 -17 -6 -35 -1 -18 5 -32 5
-35 -1 -4 -5 -13 -5 -23 0 -11 6 -24 6 -35 0 -12 -7 -17 -6 -17 1 0 6 -4 8
-10 5 -15 -9 -81 -12 -86 -4 -3 5 -16 4 -29 -1 -13 -5 -26 -6 -29 -1 -3 4 -28
5 -56 1 -28 -4 -53 -3 -56 2 -3 4 -13 4 -22 -1 -10 -5 -24 -6 -32 -1 -8 4 -25
4 -38 -1z"/>
</g>
</svg>
