<?xml version="1.0" standalone="no"?>
<!DOCTYPE svg PUBLIC "-//W3C//DTD SVG 20010904//EN"
 "http://www.w3.org/TR/2001/REC-SVG-20010904/DTD/svg10.dtd">
<svg version="1.0" xmlns="http://www.w3.org/2000/svg"
 width="700.000000pt" height="700.000000pt" viewBox="0 0 700.000000 700.000000"
 preserveAspectRatio="xMidYMid meet">
<metadata>
Created by potrace 1.14, written by Peter Selinger 2001-2017
</metadata>
<g transform="translate(0.000000,700.000000) scale(0.100000,-0.100000)"
fill="#000000" stroke="none">
<path d="M350 3500 l0 -3500 1683 2 1682 3 1 1101 0 1100 31 40 c26 33 136
182 303 409 24 33 48 65 52 70 5 6 27 35 49 65 22 30 48 66 59 80 10 14 68 91
127 171 59 80 116 157 126 170 9 13 41 56 70 95 l53 72 14 -32 c14 -31 179
-404 205 -461 7 -16 127 -286 265 -600 347 -785 439 -992 465 -1050 13 -27 56
-124 95 -215 40 -91 84 -190 97 -220 14 -30 40 -89 58 -130 18 -41 42 -97 55
-125 12 -27 32 -72 45 -100 24 -53 101 -229 159 -360 l35 -80 461 -3 c254 -1
459 1 457 5 -3 5 -14 31 -27 58 -26 61 -25 59 -148 330 -54 121 -109 243 -121
270 -13 28 -42 93 -66 145 -24 52 -84 185 -133 295 -85 189 -106 236 -168 372
-14 32 -52 117 -84 188 -32 72 -69 155 -83 185 -68 150 -186 409 -239 530 -33
74 -72 162 -88 195 -15 33 -37 81 -48 106 -43 96 -115 255 -132 294 -10 22
-52 115 -93 206 -42 91 -105 231 -140 310 -36 79 -78 173 -95 209 -59 130 -72
159 -72 164 0 2 -22 51 -49 108 -27 56 -59 127 -71 156 -27 64 -40 35 125 287
146 222 384 588 420 644 15 25 31 49 36 55 5 6 70 106 145 221 75 116 179 276
232 357 54 81 165 251 247 378 83 127 192 294 243 371 50 78 92 145 92 150 0
5 4 9 9 9 5 0 11 6 13 13 2 6 46 77 99 157 53 80 108 164 122 188 l27 42 -480
0 -480 0 -25 -40 c-27 -43 -100 -154 -286 -440 -99 -151 -468 -717 -681 -1043
-36 -56 -103 -158 -147 -227 -44 -69 -85 -132 -91 -140 -11 -15 -170 -260
-385 -590 -66 -101 -161 -248 -212 -325 -50 -77 -131 -201 -179 -275 -48 -74
-118 -181 -156 -238 -37 -56 -68 -106 -68 -110 -1 -7 -36 -52 -42 -52 -1 0 -3
783 -2 1740 l0 1740 -1683 0 -1683 0 0 -3500z"/>
</g>
</svg>
