<svg aria-hidden="true" style="position: absolute; width: 0; height: 0; overflow: hidden;" version="1.1" xmlns="http://www.w3.org/2000/svg" xmlns:xlink="http://www.w3.org/1999/xlink">
<defs>
<symbol id="icon-arrow" viewBox="0 0 32 32">
  <path fill="#d61c27" style="fill: var(--color1, #d61c27)" d="M32 16l-6.154-3.553v7.106l6.154-3.553zM0 16.615h26.462v-1.231h-26.462v1.231z"></path>
</symbol>
<symbol id="icon-arrows-up" viewBox="0 0 32 32">
  <path d="M0 16.0212V25.5989L14.0033 12.5777L28 25.5989V16.0212L14.0033 3.00009L0 16.0212Z" /> </path>
</symbol>
<symbol id="icon-crumbs__arrow" viewBox="0 0 32 32">
  <path fill="#b8b8b8" style="fill: var(--color3, #b8b8b8)" d="M23.33 16.593l-13.576 13.576-3.017-3.017 12.068-12.068-12.068-12.068 3.017-3.017 15.085 15.085-1.509 1.508z"></path>
</symbol>
<symbol id="icon-crumbs__icon" viewBox="0 0 32 32">
  <path fill="#b8b8b8" style="fill: var(--color3, #b8b8b8)" d="M15.999 2.333l12.39 9.586v16.41h-7.030v-10.709c0-0.544-0.48-1.037-1.005-1.037h-8.709c-0.526 0-1.005 0.493-1.005 1.037v10.709h-7.032v-16.41l12.39-9.586zM15.391 0.205l-13.394 10.365c-0.124 0.1-0.224 0.227-0.293 0.371s-0.104 0.302-0.104 0.461v17.962c0 0.544 0.48 1.037 1.005 1.037h9.042c0.526 0 1.005-0.494 1.005-1.037v-10.707h6.698v10.709c0 0.544 0.48 1.037 1.005 1.037h9.042c0.526 0 1.005-0.494 1.005-1.037v-17.965c0-0.32-0.15-0.637-0.397-0.832l-13.398-10.362c-0.438-0.288-0.821-0.259-1.213 0l-0.002-0.002z"></path>
</symbol>
<symbol id="icon-footer__icon" viewBox="0 0 32 32">
  <path fill="#d61c27" style="fill: var(--color1, #d61c27)" d="M16 32c0 0 9.6-9.098 9.6-16 0-2.546-1.011-4.988-2.812-6.788s-4.242-2.812-6.788-2.812-4.988 1.011-6.788 2.812c-1.8 1.8-2.812 4.242-2.812 6.788 0 6.902 9.6 16 9.6 16zM16 20.8c-1.273 0-2.494-0.506-3.394-1.406s-1.406-2.121-1.406-3.394c0-1.273 0.506-2.494 1.406-3.394s2.121-1.406 3.394-1.406c1.273 0 2.494 0.506 3.394 1.406s1.406 2.121 1.406 3.394c0 1.273-0.506 2.494-1.406 3.394s-2.121 1.406-3.394 1.406z"></path>
</symbol>
<symbol id="icon-footer__icon-1" viewBox="0 0 32 32">
  <path fill="#d61c27" style="fill: var(--color1, #d61c27)" d="M7.467 27.733c-0.587 0-1.089-0.209-1.506-0.626s-0.627-0.921-0.627-1.507v-12.8c0-0.587 0.209-1.089 0.627-1.506s0.919-0.627 1.506-0.627h17.067c0.587 0 1.089 0.209 1.507 0.627s0.626 0.919 0.626 1.506v12.8c0 0.587-0.209 1.089-0.626 1.507s-0.92 0.626-1.507 0.626h-17.067zM16 20.267l8.533-5.333v-2.133l-8.533 5.333-8.533-5.333v2.133l8.533 5.333z"></path>
</symbol>
<symbol id="icon-footer__icon-2" viewBox="0 0 32 32">
  <path fill="#d61c27" style="fill: var(--color1, #d61c27)" d="M19.464 23.584l1.792-1.792c0.241-0.238 0.547-0.401 0.879-0.47s0.677-0.038 0.993 0.086l2.184 0.872c0.319 0.13 0.593 0.351 0.786 0.635s0.299 0.62 0.302 0.965v4c-0.002 0.234-0.051 0.466-0.145 0.68s-0.23 0.408-0.4 0.569-0.372 0.285-0.591 0.366c-0.22 0.081-0.454 0.116-0.688 0.105-15.304-0.952-18.392-13.912-18.976-18.872-0.027-0.244-0.002-0.49 0.073-0.723s0.199-0.448 0.363-0.63c0.164-0.182 0.365-0.327 0.589-0.426s0.467-0.149 0.712-0.148h3.864c0.345 0.001 0.681 0.105 0.967 0.299s0.506 0.469 0.633 0.789l0.872 2.184c0.128 0.314 0.161 0.66 0.094 0.993s-0.23 0.639-0.47 0.879l-1.792 1.792c0 0 1.032 6.984 7.96 7.848z"></path>
</symbol>
<symbol id="icon-social__link" viewBox="0 0 32 32">
  <path d="M16 7.784c-4.538 0-8.216 3.679-8.216 8.216s3.679 8.216 8.216 8.216c4.538 0 8.216-3.678 8.216-8.216s-3.678-8.216-8.216-8.216zM16 21.333c-2.946 0-5.333-2.388-5.333-5.333s2.388-5.333 5.333-5.333c2.945 0 5.333 2.388 5.333 5.333s-2.388 5.333-5.333 5.333z"></path>
  <path d="M24.541 9.379c1.060 0 1.92-0.86 1.92-1.92s-0.86-1.92-1.92-1.92c-1.060 0-1.92 0.86-1.92 1.92s0.86 1.92 1.92 1.92z"></path>
  <path d="M16 0c-4.345 0-4.89 0.018-6.597 0.096-1.703 0.078-2.866 0.348-3.884 0.744-1.052 0.409-1.944 0.956-2.834 1.845s-1.437 1.782-1.845 2.834c-0.396 1.018-0.666 2.181-0.744 3.884-0.078 1.707-0.096 2.251-0.096 6.597s0.018 4.89 0.096 6.597c0.078 1.703 0.348 2.866 0.744 3.884 0.409 1.052 0.956 1.944 1.845 2.834s1.782 1.437 2.834 1.845c1.018 0.395 2.181 0.666 3.884 0.744 1.707 0.078 2.251 0.096 6.597 0.096s4.89-0.018 6.597-0.096c1.703-0.078 2.866-0.348 3.884-0.744 1.052-0.409 1.944-0.956 2.834-1.845s1.437-1.782 1.845-2.834c0.395-1.018 0.666-2.181 0.744-3.884 0.078-1.707 0.096-2.252 0.096-6.597s-0.018-4.89-0.096-6.597c-0.078-1.703-0.348-2.866-0.744-3.884-0.409-1.052-0.956-1.944-1.845-2.834s-1.782-1.437-2.834-1.845c-1.018-0.396-2.181-0.666-3.884-0.744-1.707-0.078-2.252-0.096-6.597-0.096zM16 2.883c4.272 0 4.778 0.016 6.465 0.093 1.56 0.071 2.407 0.332 2.971 0.551 0.747 0.29 1.28 0.637 1.84 1.197s0.907 1.093 1.197 1.84c0.219 0.564 0.48 1.411 0.551 2.971 0.077 1.687 0.093 2.193 0.093 6.465s-0.016 4.778-0.093 6.465c-0.071 1.56-0.332 2.407-0.551 2.971-0.29 0.747-0.637 1.28-1.197 1.84s-1.093 0.907-1.84 1.197c-0.564 0.219-1.411 0.48-2.971 0.551-1.687 0.077-2.193 0.093-6.465 0.093s-4.778-0.016-6.465-0.093c-1.56-0.071-2.407-0.332-2.971-0.551-0.747-0.29-1.28-0.637-1.84-1.197s-0.907-1.093-1.197-1.84c-0.219-0.564-0.48-1.411-0.551-2.971-0.077-1.687-0.093-2.193-0.093-6.465s0.016-4.778 0.093-6.465c0.071-1.56 0.332-2.407 0.551-2.971 0.29-0.747 0.637-1.28 1.197-1.84s1.093-0.907 1.84-1.197c0.564-0.219 1.411-0.48 2.971-0.551 1.687-0.077 2.193-0.093 6.465-0.093z"></path>
</symbol>
<symbol id="icon-social__link-1" viewBox="0 0 32 32">
  <path d="M23.39 17.864l0.881-5.748h-5.515v-3.73c0-1.572 0.77-3.105 3.24-3.105h2.507v-4.893c0 0-2.276-0.388-4.451-0.388-4.542 0-7.51 2.753-7.51 7.736v4.381h-5.049v5.748h5.049v13.894c1.012 0.159 2.050 0.242 3.107 0.242s2.095-0.083 3.107-0.242v-13.894h4.633z"></path>
</symbol>
<symbol id="icon-social__link-2" viewBox="0 0 32 32">
  <path d="M7.163 32h-6.634v-21.365h6.634v21.365zM3.842 7.721c-2.121 0-3.842-1.757-3.842-3.879 0-1.019 0.405-1.996 1.125-2.717s1.698-1.125 2.717-1.125c1.019 0 1.996 0.405 2.717 1.125s1.125 1.698 1.125 2.717c0 2.121-1.721 3.879-3.842 3.879zM31.993 32h-6.62v-10.4c0-2.479-0.050-5.657-3.449-5.657-3.449 0-3.978 2.693-3.978 5.479v10.579h-6.627v-21.365h6.363v2.914h0.093c0.886-1.679 3.049-3.45 6.277-3.45 6.714 0 7.949 4.421 7.949 10.165v11.736h-0.007z"></path>
</symbol>
</defs>
</svg>
