<svg width="12" height="12" viewBox="0 0 12 12" fill="none" xmlns="http://www.w3.org/2000/svg">
<g clip-path="url(#clip0_1266_21341)">
<path fill-rule="evenodd" clip-rule="evenodd" d="M5.9995 0.874769L10.6459 4.46937V10.623H8.0095V6.60717C8.0095 6.40317 7.8295 6.21837 7.6327 6.21837H4.3669C4.1695 6.21837 3.9901 6.40317 3.9901 6.60717V10.623H1.3531V4.46937L5.9995 0.874769ZM5.7715 0.0767694L0.748899 3.96357C0.702322 4.00112 0.664771 4.04865 0.639017 4.10265C0.613263 4.15665 0.599963 4.21574 0.600099 4.27557V11.0112C0.600099 11.2152 0.780099 11.4 0.976899 11.4H4.3675C4.5649 11.4 4.7443 11.2146 4.7443 11.0112V6.99597H7.2559V11.0118C7.2559 11.2158 7.4359 11.4006 7.6327 11.4006H11.0233C11.2207 11.4006 11.4001 11.2152 11.4001 11.0118V4.27497C11.4001 4.15497 11.3437 4.03617 11.2513 3.96297L6.2269 0.0773694C6.0625 -0.0306306 5.9191 -0.0198306 5.7721 0.0773694L5.7715 0.0767694Z" fill="#B8B8B8"/>
</g>
<defs>
<clipPath id="clip0_1266_21341">
<rect width="12" height="12" fill="white"/>
</clipPath>
</defs>
</svg>
