<svg width="16" height="20" viewBox="0 0 16 20" fill="none" xmlns="http://www.w3.org/2000/svg">
<path d="M2.66683 17.3333C2.30016 17.3333 1.98638 17.2028 1.7255 16.942C1.46416 16.6806 1.3335 16.3666 1.3335 16V7.99996C1.3335 7.63329 1.46416 7.31951 1.7255 7.05863C1.98638 6.79729 2.30016 6.66663 2.66683 6.66663H13.3335C13.7002 6.66663 14.0142 6.79729 14.2755 7.05863C14.5364 7.31951 14.6668 7.63329 14.6668 7.99996V16C14.6668 16.3666 14.5364 16.6806 14.2755 16.942C14.0142 17.2028 13.7002 17.3333 13.3335 17.3333H2.66683ZM8.00016 12.6666L13.3335 9.33329V7.99996L8.00016 11.3333L2.66683 7.99996V9.33329L8.00016 12.6666Z" fill="#D61C27"/>
</svg>
