<svg width="16" height="20" viewBox="0 0 16 20" fill="none" xmlns="http://www.w3.org/2000/svg">
<g clip-path="url(#clip0_1276_21846)">
<path d="M8 20C8 20 14 14.314 14 10C14 8.4087 13.3679 6.88258 12.2426 5.75736C11.1174 4.63214 9.5913 4 8 4C6.4087 4 4.88258 4.63214 3.75736 5.75736C2.63214 6.88258 2 8.4087 2 10C2 14.314 8 20 8 20ZM8 13C7.20435 13 6.44129 12.6839 5.87868 12.1213C5.31607 11.5587 5 10.7956 5 10C5 9.20435 5.31607 8.44129 5.87868 7.87868C6.44129 7.31607 7.20435 7 8 7C8.79565 7 9.55871 7.31607 10.1213 7.87868C10.6839 8.44129 11 9.20435 11 10C11 10.7956 10.6839 11.5587 10.1213 12.1213C9.55871 12.6839 8.79565 13 8 13Z" fill="#D61C27"/>
</g>
<defs>
<clipPath id="clip0_1276_21846">
<rect width="16" height="16" fill="white" transform="translate(0 4)"/>
</clipPath>
</defs>
</svg>
