<svg width="16" height="20" viewBox="0 0 16 20" fill="none" xmlns="http://www.w3.org/2000/svg">
<path d="M10.1648 14.74L11.2848 13.62C11.4357 13.471 11.6265 13.3691 11.8342 13.3265C12.0419 13.2839 12.2575 13.3025 12.4548 13.38L13.8198 13.925C14.0192 14.006 14.1902 14.1441 14.3112 14.3221C14.4322 14.5 14.4979 14.7098 14.4998 14.925V17.425C14.4987 17.5714 14.4679 17.716 14.4094 17.8502C14.3508 17.9844 14.2657 18.1054 14.1592 18.2058C14.0527 18.3062 13.927 18.3841 13.7896 18.4346C13.6522 18.4852 13.506 18.5074 13.3598 18.5C3.79482 17.905 1.86482 9.80502 1.49982 6.70502C1.48288 6.55279 1.49836 6.39869 1.54525 6.25288C1.59213 6.10706 1.66936 5.97282 1.77186 5.85899C1.87435 5.74516 1.99978 5.65432 2.1399 5.59245C2.28002 5.53058 2.43165 5.49908 2.58482 5.50002H4.99982C5.21533 5.50066 5.42571 5.56575 5.60392 5.68694C5.78213 5.80812 5.92001 5.97984 5.99982 6.18002L6.54482 7.54502C6.62495 7.74155 6.64539 7.95734 6.6036 8.16543C6.5618 8.37351 6.45962 8.56467 6.30982 8.71502L5.18982 9.83502C5.18982 9.83502 5.83482 14.2 10.1648 14.74Z" fill="#D61C27"/>
</svg>
