<svg width="32" height="32" viewBox="0 0 32 32" fill="none" xmlns="http://www.w3.org/2000/svg">
<g clip-path="url(#clip0_1276_21822)">
<path fill-rule="evenodd" clip-rule="evenodd" d="M16.0001 7.78375C11.4624 7.78375 7.78385 11.4623 7.78385 16C7.78385 20.5376 11.4624 24.2161 16.0001 24.2161C20.5377 24.2161 24.2162 20.5376 24.2162 16C24.2162 11.4623 20.5377 7.78375 16.0001 7.78375ZM16.0001 21.3333C13.0545 21.3333 10.6667 18.9454 10.6667 16C10.6667 13.0544 13.0545 10.6666 16.0001 10.6666C18.9455 10.6666 21.3334 13.0544 21.3334 16C21.3334 18.9454 18.9455 21.3333 16.0001 21.3333Z" fill="#404040"/>
<path d="M24.5408 9.37912C25.6011 9.37912 26.4608 8.51956 26.4608 7.45912C26.4608 6.39875 25.6011 5.53918 24.5408 5.53918C23.4804 5.53918 22.6208 6.39875 22.6208 7.45912C22.6208 8.51956 23.4804 9.37912 24.5408 9.37912Z" fill="#404040"/>
<path fill-rule="evenodd" clip-rule="evenodd" d="M16 0C11.6546 0 11.1097 0.0184375 9.40319 0.0963125C7.70019 0.174 6.53706 0.444437 5.51931 0.84C4.46719 1.24887 3.57487 1.796 2.68544 2.6855C1.79594 3.57494 1.24881 4.46725 0.839937 5.51937C0.444375 6.53706 0.173937 7.70019 0.09625 9.40319C0.018375 11.1097 0 11.6546 0 16C0 20.3452 0.018375 20.8901 0.09625 22.5967C0.173937 24.2997 0.444375 25.4628 0.839937 26.4805C1.24881 27.5326 1.79594 28.4249 2.68544 29.3145C3.57487 30.2039 4.46719 30.7511 5.51931 31.1599C6.53706 31.5554 7.70019 31.8259 9.40319 31.9036C11.1097 31.9814 11.6546 31.9999 16 31.9999C20.3452 31.9999 20.8901 31.9814 22.5967 31.9036C24.2997 31.8259 25.4628 31.5554 26.4805 31.1599C27.5326 30.7511 28.4249 30.2039 29.3145 29.3145C30.2039 28.4249 30.7511 27.5326 31.1599 26.4805C31.5554 25.4628 31.8259 24.2997 31.9036 22.5967C31.9814 20.8901 31.9999 20.3452 31.9999 16C31.9999 11.6546 31.9814 11.1097 31.9036 9.40319C31.8259 7.70019 31.5554 6.53706 31.1599 5.51937C30.7511 4.46725 30.2039 3.57494 29.3145 2.6855C28.4249 1.796 27.5326 1.24887 26.4805 0.84C25.4628 0.444437 24.2997 0.174 22.5967 0.0963125C20.8901 0.0184375 20.3452 0 16 0ZM16 2.88294C20.2721 2.88294 20.7782 2.89919 22.4653 2.97619C24.0252 3.04737 24.8724 3.308 25.4362 3.52706C26.1831 3.81731 26.7161 4.16406 27.2759 4.72394C27.8359 5.28381 28.1826 5.81687 28.4728 6.56362C28.6919 7.12744 28.9526 7.97462 29.0237 9.53456C29.1007 11.2217 29.117 11.7278 29.117 16C29.117 20.2721 29.1007 20.7782 29.0237 22.4653C28.9526 24.0252 28.6919 24.8724 28.4728 25.4362C28.1826 26.1831 27.8359 26.7161 27.2759 27.2759C26.7161 27.8359 26.1831 28.1826 25.4362 28.4728C24.8724 28.6919 24.0252 28.9526 22.4653 29.0237C20.7784 29.1007 20.2724 29.117 16 29.117C11.7274 29.117 11.2216 29.1007 9.53456 29.0237C7.97462 28.9526 7.12744 28.6919 6.56362 28.4728C5.81681 28.1826 5.28381 27.8359 4.72387 27.2759C4.164 26.7161 3.81725 26.1831 3.52706 25.4362C3.30794 24.8724 3.04731 24.0252 2.97612 22.4653C2.89912 20.7782 2.88287 20.2721 2.88287 16C2.88287 11.7278 2.89912 11.2217 2.97612 9.53456C3.04731 7.97462 3.30794 7.12744 3.52706 6.56362C3.81725 5.81687 4.164 5.28381 4.72387 4.72394C5.28381 4.16406 5.81681 3.81731 6.56362 3.52706C7.12744 3.308 7.97462 3.04737 9.53456 2.97619C11.2217 2.89919 11.7278 2.88294 16 2.88294Z" fill="#404040"/>
</g>
<defs>
<clipPath id="clip0_1276_21822">
<rect width="32" height="32" fill="white"/>
</clipPath>
</defs>
</svg>
